# xmcd
# 
# Track frame offsets:
#     150
#     15921
#     34629
#     50441
#     61912
#     76247
#     99885
#     113898
#     132359
#     149630
#     161955
#     178843
#     197874
#     212845
#     235734
#     250454
#     264354
#     280884
# 
# Disc length: 3872
# 
# Revision: 0
# Processed by: cddbd v1.5.2PL0 Copyright (c) Steve Scherf et al.
# Submitted via: BonkEnc v1.0.15
# 
DISCID=010f1e12
DTITLE=The Warratahs - The Warratahs Collection
DYEAR=12008
DGENRE=Country
TTITLE0=Maureen
TTITLE1=Big Sky
TTITLE2=Before This Night Is Through
TTITLE3=East Of Mt Eden
TTITLE4=Hands Of My Heart
TTITLE5=Cape Turnagain
TTITLE6=Drivin' Wheel
TTITLE7=St Peter's Rendezvous
TTITLE8=Westland Moon
TTITLE9=High And Dry
TTITLE10=Taranaki
TTITLE11=Rescue Me
TTITLE12=Bruno's Last Ride
TTITLE13=Holy Morning
TTITLE14=Fools Paradise
TTITLE15=Down Your Street
TTITLE16=Only Game In Town
TTITLE17=Easy Come Easy Go
EXTD=www.warratahs.co.nz
EXTT0=
EXTT1=
EXTT2=
EXTT3=
EXTT4=
EXTT5=
EXTT6=
EXTT7=
EXTT8=
EXTT9=
EXTT10=
EXTT11=
EXTT12=
EXTT13=
EXTT14=
EXTT15=
EXTT16=
EXTT17=
PLAYORDER=
